# Blender v2.79 (sub 0) OBJ File: 'avatar_4.blend'
# www.blender.org
mtllib body_4.mtl
o arm.r_Plane.007
v -0.035574 0.090080 0.006435
v -0.022704 0.090080 0.006435
v -0.035574 0.090080 -0.006435
v -0.022704 0.090080 -0.006435
v -0.022704 0.045034 0.006435
v -0.022704 0.045034 -0.006435
v -0.035574 0.045034 0.006435
v -0.035574 0.045034 -0.006435
vt 0.000000 0.777778
vt 0.250000 0.777778
vt 0.250000 1.000000
vt 0.000000 1.000000
vt 1.000000 0.777778
vt 0.750000 0.777778
vt 0.750000 0.000000
vt 1.000000 0.000000
vt 0.500000 0.777778
vt 0.500000 1.000000
vt 0.250000 1.000000
vt 0.250000 0.777778
vt 0.250000 0.000000
vt 0.000000 0.777778
vt 0.000000 0.000000
vt 0.500031 0.777787
vt 0.499970 0.000010
vt 0.749970 -0.000010
vt 0.750031 0.777768
vt 0.249992 0.777775
vt 0.250009 -0.000003
vt 0.500008 0.000003
vt 0.499992 0.777780
vn 0.0000 1.0000 0.0000
vn 1.0000 0.0000 0.0000
vn 0.0000 -1.0000 0.0000
vn -1.0000 0.0000 0.0000
vn 0.0000 0.0000 -1.0000
vn 0.0000 0.0000 1.0000
usemtl Skin
s off
f 1/1/1 2/2/1 4/3/1 3/4/1
f 4/5/2 2/6/2 5/7/2 6/8/2
f 6/9/3 5/10/3 7/11/3 8/12/3
f 3/13/4 8/12/4 7/14/4 1/15/4
f 4/16/5 6/17/5 8/18/5 3/19/5
f 1/20/6 7/21/6 5/22/6 2/23/6
o arm.l_Plane.006
v 0.028777 0.090080 0.006435
v 0.041647 0.090080 0.006435
v 0.028777 0.090080 -0.006435
v 0.041647 0.090080 -0.006435
v 0.041647 0.045034 0.006435
v 0.041647 0.045034 -0.006435
v 0.028777 0.045034 0.006435
v 0.028777 0.045034 -0.006435
vt 0.001563 0.777778
vt 0.251562 0.777778
vt 0.251562 1.000000
vt 0.001563 1.000000
vt 0.750000 0.777778
vt 0.500000 0.777778
vt 0.500000 0.000000
vt 0.750000 0.000000
vt 1.003125 0.777778
vt 1.003125 1.000000
vt 0.753125 1.000000
vt 0.753125 0.777778
vt 0.250000 0.000000
vt 0.250000 0.777778
vt 0.000000 0.777778
vt 0.000000 0.000000
vt 0.999981 -0.000006
vt 1.000019 0.777772
vt 0.250003 0.777779
vt 0.249997 0.000001
vn 0.0000 1.0000 0.0000
vn 1.0000 0.0000 0.0000
vn 0.0000 -1.0000 0.0000
vn -1.0000 0.0000 0.0000
vn 0.0000 0.0000 -1.0000
vn 0.0000 0.0000 1.0000
usemtl Skin_avatar_arm_4.png
s off
f 9/24/7 10/25/7 12/26/7 11/27/7
f 12/28/8 10/29/8 13/30/8 14/31/8
f 14/32/9 13/33/9 15/34/9 16/35/9
f 11/36/10 16/37/10 15/38/10 9/39/10
f 12/28/11 14/31/11 16/40/11 11/41/11
f 9/42/12 15/43/12 13/30/12 10/29/12
o leg.l_Plane.005
v 0.015907 0.045034 0.006435
v 0.028777 0.045034 0.006435
v 0.015907 0.045034 -0.006435
v 0.028777 0.045034 -0.006435
v 0.028777 -0.000012 0.006435
v 0.028777 -0.000012 -0.006435
v 0.015907 -0.000012 0.006435
v 0.015907 -0.000012 -0.006435
vt 0.857143 0.285714
vt 1.000000 0.285714
vt 1.000000 0.571429
vt 0.857143 0.571429
vt 0.285753 -0.000011
vt 0.571467 0.000011
vt 0.571390 1.000011
vt 0.285676 0.999989
vt 1.000000 0.000000
vt 1.000000 0.285714
vt 0.857143 0.285714
vt 0.857143 0.000000
vt 0.285714 0.000000
vt 0.285714 1.000000
vt 0.000000 1.000000
vt 0.000000 0.000000
vt 0.857143 0.000000
vt 0.857143 1.000000
vt 0.714286 1.000000
vt 0.714286 0.000000
vt 0.714285 0.000000
vt 0.714286 1.000000
vt 0.571428 0.000000
vn 0.0000 1.0000 0.0000
vn 1.0000 0.0000 0.0000
vn 0.0000 -1.0000 0.0000
vn -1.0000 -0.0000 0.0000
vn 0.0000 0.0000 -1.0000
vn 0.0000 0.0000 1.0000
usemtl base_mat
s off
f 17/44/13 18/45/13 20/46/13 19/47/13
f 20/48/14 18/49/14 21/50/14 22/51/14
f 22/52/15 21/53/15 23/54/15 24/55/15
f 19/56/16 24/57/16 23/58/16 17/59/16
f 20/60/17 22/61/17 24/62/17 19/63/17
f 17/64/18 23/65/18 21/50/18 18/66/18
o leg.r_Plane.002
v -0.022704 0.045034 0.006435
v -0.009834 0.045034 0.006435
v -0.022704 0.045034 -0.006435
v -0.009834 0.045034 -0.006435
v -0.009834 -0.000012 0.006435
v -0.009834 -0.000012 -0.006435
v -0.022704 -0.000012 0.006435
v -0.022704 -0.000012 -0.006435
vt 0.857143 0.285714
vt 1.000000 0.285714
vt 1.000000 0.571429
vt 0.857143 0.571429
vt 0.285714 0.000000
vt 0.571428 -0.000000
vt 0.571429 1.000000
vt 0.285715 1.000000
vt 1.000000 0.000000
vt 1.000000 0.285714
vt 0.857143 0.285714
vt 0.857143 0.000000
vt 0.285714 0.000000
vt 0.285714 1.000000
vt 0.000000 1.000000
vt 0.000000 0.000000
vt 0.857143 0.000000
vt 0.857143 1.000000
vt 0.714286 1.000000
vt 0.714286 0.000000
vt 0.714285 0.000000
vt 0.714286 1.000000
vn 0.0000 1.0000 0.0000
vn 1.0000 0.0000 0.0000
vn 0.0000 -1.0000 0.0000
vn -1.0000 0.0000 0.0000
vn 0.0000 0.0000 -1.0000
vn 0.0000 0.0000 1.0000
usemtl None
s off
f 25/67/19 26/68/19 28/69/19 27/70/19
f 28/71/20 26/72/20 29/73/20 30/74/20
f 30/75/21 29/76/21 31/77/21 32/78/21
f 27/79/22 32/80/22 31/81/22 25/82/22
f 28/83/23 30/84/23 32/85/23 27/86/23
f 25/87/24 31/88/24 29/73/24 26/72/24
o body_Plane.001
v -0.029139 0.096515 0.025741
v 0.035212 0.096515 0.025741
v -0.029139 0.096515 -0.025741
v 0.035212 0.096515 -0.025741
v 0.035212 0.090080 0.025741
v 0.035212 0.090080 -0.025741
v 0.028777 0.090080 0.025741
v 0.028777 0.090080 -0.025741
v 0.028777 0.045034 0.025741
v 0.028777 0.045034 -0.025741
v -0.022704 0.045034 0.025741
v -0.022704 0.045034 -0.025741
v -0.022704 0.090080 0.025741
v -0.022704 0.090080 -0.025741
v -0.029139 0.090080 0.025741
v -0.029139 0.090080 -0.025741
vt 0.000000 0.000000
vt 0.277777 0.000000
vt 0.277778 0.666667
vt 0.000000 0.666667
vt 0.972222 0.000000
vt 0.972222 0.666667
vt 0.944444 0.666667
vt 0.944444 0.000000
vt 0.916667 0.666667
vt 0.916667 0.000000
vt 0.888889 0.000000
vt 0.888889 0.666667
vt 0.694444 0.666667
vt 0.694444 0.000000
vt 0.500000 0.000000
vt 0.500000 0.666667
vt 0.277778 0.666667
vt 0.277778 0.000000
vt 0.694444 0.000000
vt 0.694444 0.666667
vt 0.500000 0.666667
vt 0.500000 0.000000
vt 0.972222 0.666667
vt 0.972222 0.000000
vt 1.000000 0.000000
vt 1.000000 0.666667
vt 0.888889 0.000000
vt 0.916666 0.000000
vt 0.916667 0.666667
vt 0.888889 0.666667
vt 0.416666 1.000000
vt 0.388889 1.000000
vt 0.388889 0.666667
vt 0.416666 0.666667
vt 0.388889 0.698667
vt 0.388889 0.965333
vt 0.194444 0.965333
vt 0.194444 0.698667
vt 0.444444 0.666667
vt 0.444444 1.000000
vt 0.416667 1.000000
vt 0.416666 0.666667
vt 0.609600 0.965333
vt 0.609600 0.698667
vt 0.804044 0.698667
vt 0.804044 0.965333
vn 0.0000 1.0000 0.0000
vn 1.0000 0.0000 0.0000
vn 0.0000 -1.0000 0.0000
vn -1.0000 0.0000 0.0000
vn 0.0000 0.0000 1.0000
vn -0.0000 0.0000 -1.0000
usemtl base_mat_avatar_body_4.png.001
s off
f 33/89/25 34/90/25 36/91/25 35/92/25
f 36/93/26 34/94/26 37/95/26 38/96/26
f 38/96/27 37/95/27 39/97/27 40/98/27
f 40/99/26 39/100/26 41/101/26 42/102/26
f 42/103/27 41/104/27 43/105/27 44/106/27
f 44/107/28 43/108/28 45/109/28 46/110/28
f 46/111/27 45/112/27 47/113/27 48/114/27
f 35/115/28 48/116/28 47/117/28 33/118/28
f 33/119/29 47/120/29 37/121/29 34/122/29
f 39/123/29 45/124/29 43/125/29 41/126/29
f 35/127/30 36/128/30 38/129/30 48/130/30
f 42/131/30 44/132/30 46/133/30 40/134/30
