# Blender v2.79 (sub 0) OBJ File: 'body_6.blend'
# www.blender.org
mtllib body_6.mtl
o arm.r_Plane.007
v -0.044516 0.089380 0.006423
v -0.031671 0.089380 0.006423
v -0.044516 0.089380 -0.006423
v -0.031671 0.089380 -0.006423
v -0.031671 0.037999 0.006423
v -0.031671 0.037999 -0.006423
v -0.044516 0.037999 0.006423
v -0.044516 0.037999 -0.006423
vt 0.000000 0.800000
vt 0.200000 0.800000
vt 0.200000 1.000000
vt 0.000000 1.000000
vt 0.800000 0.800000
vt 0.600000 0.800000
vt 0.600000 0.000000
vt 0.800000 0.000000
vt 1.000000 0.000000
vt 1.000000 0.200000
vt 0.800000 0.200000
vt 0.800000 0.000000
vt 0.200000 0.000000
vt 0.200000 0.800000
vt 0.000000 0.800000
vt 0.000000 0.000000
vt 0.600000 0.000000
vt 0.600000 0.800000
vt 0.400000 0.800000
vt 0.400000 0.000000
vt 0.400000 0.000000
vt 0.400000 0.800000
vt 0.200000 0.800000
vt 0.200000 0.000000
vn 0.0000 1.0000 0.0000
vn 1.0000 0.0000 0.0000
vn 0.0000 -1.0000 0.0000
vn -1.0000 0.0000 0.0000
vn 0.0000 0.0000 -1.0000
vn 0.0000 0.0000 1.0000
usemtl base_mat
s off
f 1/1/1 2/2/1 4/3/1 3/4/1
f 4/5/2 2/6/2 5/7/2 6/8/2
f 6/9/3 5/10/3 7/11/3 8/12/3
f 3/13/4 8/14/4 7/15/4 1/16/4
f 4/17/5 6/18/5 8/19/5 3/20/5
f 1/21/6 7/22/6 5/23/6 2/24/6
o arm.l_Plane.006
v 0.032555 0.089380 0.006423
v 0.045401 0.089380 0.006423
v 0.032555 0.089380 -0.006423
v 0.045401 0.089380 -0.006423
v 0.045401 0.037999 0.006423
v 0.045401 0.037999 -0.006423
v 0.032555 0.037999 0.006423
v 0.032555 0.037999 -0.006423
vt -0.001231 0.999263
vt -0.001231 0.799263
vt 0.198769 0.799263
vt 0.198769 0.999263
vt 0.399968 0.000008
vt 0.599968 -0.000008
vt 0.600032 0.799992
vt 0.400033 0.800008
vt 1.003468 -0.000911
vt 1.003468 0.199284
vt 0.803273 0.199284
vt 0.803273 -0.000911
vt 0.200000 0.000000
vt 0.200000 0.800000
vt 0.000000 0.800000
vt 0.000000 0.000000
vt 0.800000 0.000000
vt 0.800000 0.800000
vt 0.600000 0.800000
vt 0.600000 0.000000
vt 0.400000 0.000000
vt 0.400000 0.800000
vt 0.200000 0.800000
vt 0.200000 0.000000
vn 0.0000 1.0000 0.0000
vn 1.0000 0.0000 0.0000
vn 0.0000 -1.0000 0.0000
vn -1.0000 0.0000 0.0000
vn 0.0000 0.0000 -1.0000
vn 0.0000 0.0000 1.0000
usemtl base_mat
s off
f 9/25/7 10/26/7 12/27/7 11/28/7
f 12/29/8 10/30/8 13/31/8 14/32/8
f 14/33/9 13/34/9 15/35/9 16/36/9
f 11/37/10 16/38/10 15/39/10 9/40/10
f 12/41/11 14/42/11 16/43/11 11/44/11
f 9/45/12 15/46/12 13/47/12 10/48/12
o leg.l_Plane.005
v 0.013287 0.037999 0.006423
v 0.026133 0.037999 0.006423
v 0.013287 0.037999 -0.006423
v 0.026133 0.037999 -0.006423
v 0.026133 -0.000536 0.006423
v 0.026133 -0.000536 -0.006423
v 0.013287 -0.000536 0.006423
v 0.013287 -0.000536 -0.006423
vt 0.857143 0.285714
vt 1.000000 0.285714
vt 1.000000 0.571429
vt 0.857143 0.571429
vt 0.285753 -0.000011
vt 0.571467 0.000011
vt 0.571390 1.000011
vt 0.285676 0.999989
vt 1.000000 0.000000
vt 1.000000 0.285714
vt 0.857143 0.285714
vt 0.857143 0.000000
vt 0.285714 0.000000
vt 0.285714 1.000000
vt 0.000000 1.000000
vt 0.000000 0.000000
vt 0.857143 0.000000
vt 0.857143 1.000000
vt 0.714286 1.000000
vt 0.714286 0.000000
vt 0.714285 0.000000
vt 0.714286 1.000000
vt 0.571428 0.000000
vn 0.0000 1.0000 0.0000
vn 1.0000 0.0000 0.0000
vn 0.0000 -1.0000 0.0000
vn -1.0000 0.0000 0.0000
vn 0.0000 0.0000 -1.0000
vn 0.0000 0.0000 1.0000
usemtl base_mat_avatar_leg_6.png
s off
f 17/49/13 18/50/13 20/51/13 19/52/13
f 20/53/14 18/54/14 21/55/14 22/56/14
f 22/57/15 21/58/15 23/59/15 24/60/15
f 19/61/16 24/62/16 23/63/16 17/64/16
f 20/65/17 22/66/17 24/67/17 19/68/17
f 17/69/18 23/70/18 21/55/18 18/71/18
o leg.r_Plane.002
v -0.025248 0.037999 0.006423
v -0.012403 0.037999 0.006423
v -0.025248 0.037999 -0.006423
v -0.012403 0.037999 -0.006423
v -0.012403 -0.000536 0.006423
v -0.012403 -0.000536 -0.006423
v -0.025248 -0.000536 0.006423
v -0.025248 -0.000536 -0.006423
vt 0.857143 0.285714
vt 1.000000 0.285714
vt 1.000000 0.571429
vt 0.857143 0.571429
vt 0.285714 0.000000
vt 0.571428 -0.000000
vt 0.571429 1.000000
vt 0.285715 1.000000
vt 1.000000 0.000000
vt 1.000000 0.285714
vt 0.857143 0.285714
vt 0.857143 0.000000
vt 0.285714 0.000000
vt 0.285714 1.000000
vt 0.000000 1.000000
vt 0.000000 0.000000
vt 0.857143 0.000000
vt 0.857143 1.000000
vt 0.714286 1.000000
vt 0.714286 0.000000
vt 0.714285 0.000000
vt 0.714286 1.000000
vn 0.0000 1.0000 0.0000
vn 1.0000 0.0000 0.0000
vn 0.0000 -1.0000 0.0000
vn -1.0000 0.0000 0.0000
vn 0.0000 0.0000 -1.0000
vn 0.0000 0.0000 1.0000
usemtl base_mat_avatar_leg_6.png
s off
f 25/72/19 26/73/19 28/74/19 27/75/19
f 28/76/20 26/77/20 29/78/20 30/79/20
f 30/80/21 29/81/21 31/82/21 32/83/21
f 27/84/22 32/85/22 31/86/22 25/87/22
f 28/88/23 30/89/23 32/90/23 27/91/23
f 25/92/24 31/93/24 29/78/24 26/77/24
o body_Plane.001
v -0.038094 0.095803 0.025690
v 0.038978 0.095803 0.025690
v -0.038094 0.095803 -0.025690
v 0.038978 0.095803 -0.025690
v 0.038978 0.089380 0.025690
v 0.038978 0.089380 -0.025690
v 0.032555 0.089380 0.025690
v 0.032555 0.089380 -0.025690
v 0.032555 0.037999 0.025690
v 0.032555 0.037999 -0.025690
v -0.031671 0.037999 0.025690
v -0.031671 0.037999 -0.025690
v -0.031671 0.089380 0.025690
v -0.031671 0.089380 -0.025690
v -0.038094 0.089380 0.025690
v -0.038094 0.089380 -0.025690
v -0.038094 0.026632 -0.044334
v 0.038978 0.026632 -0.044334
vt 0.282222 0.000000
vt 0.499524 0.000000
vt 0.499524 0.666667
vt 0.282223 0.666667
vt 0.712174 0.000000
vt 0.712174 0.666667
vt 0.684397 0.666667
vt 0.684397 0.000000
vt 0.944444 0.000000
vt 0.944444 0.666667
vt 0.916667 0.666667
vt 0.916667 0.000000
vt 0.888889 0.000000
vt 0.888889 0.666667
vt 0.694444 0.666667
vt 0.694444 0.000000
vt 0.500000 0.000000
vt 0.500000 0.666667
vt 0.277778 0.666667
vt 0.277778 0.000000
vt 0.694444 0.000000
vt 0.694444 0.666667
vt 0.500000 0.666667
vt 0.500000 0.000000
vt 0.972222 0.666667
vt 0.972222 0.000000
vt 1.000000 0.000000
vt 1.000000 0.666667
vt 0.695861 0.000000
vt 0.723638 0.000000
vt 0.723639 0.666667
vt 0.695861 0.666667
vt 0.416666 1.000000
vt 0.388889 1.000000
vt 0.388889 0.666667
vt 0.416666 0.666667
vt 0.388889 0.699425
vt 0.388889 0.966091
vt 0.194444 0.966091
vt 0.194444 0.699425
vt 0.396348 1.000000
vt 0.396348 0.666667
vt 0.424126 0.666667
vt 0.424125 1.000000
vt 0.639186 0.699417
vt 0.639207 0.966083
vt 0.444763 0.966099
vt 0.444741 0.699432
vt 0.495492 0.019571
vt 0.290286 0.019571
vt 0.290286 0.660619
vt 0.495492 0.660619
vn 0.0000 1.0000 0.0000
vn 1.0000 0.0000 0.0000
vn 0.0000 -1.0000 0.0000
vn -1.0000 0.0000 0.0000
vn 0.0000 0.0000 1.0000
vn 0.0000 0.0000 -1.0000
vn 0.0000 -0.2602 0.9655
usemtl base_mat_avatar_body_6.png
s off
f 33/94/25 34/95/25 36/96/25 35/97/25
f 36/98/26 34/99/26 37/100/26 38/101/26
f 38/102/27 37/103/27 39/104/27 40/105/27
f 40/106/26 39/107/26 41/108/26 42/109/26
f 42/110/27 41/111/27 43/112/27 44/113/27
f 44/114/28 43/115/28 45/116/28 46/117/28
f 46/118/27 45/119/27 47/120/27 48/121/27
f 35/122/28 48/123/28 47/124/28 33/125/28
f 33/126/29 47/127/29 37/128/29 34/129/29
f 39/130/29 45/131/29 43/132/29 41/133/29
f 35/134/30 36/135/30 38/136/30 48/137/30
f 42/138/30 44/139/30 46/140/30 40/141/30
f 36/142/31 35/143/31 49/144/31 50/145/31
