# Blender v2.79 (sub 0) OBJ File: 'head_5.blend'
# www.blender.org
mtllib head_5.mtl
o head_Plane
v -0.025248 0.095803 0.025690
v 0.026133 0.095803 0.025690
v -0.025248 0.095803 -0.025690
v 0.026133 0.095803 -0.025690
v 0.026133 0.102225 0.025690
v 0.026133 0.102225 -0.025690
v 0.032555 0.102225 0.025690
v 0.032555 0.102225 -0.025690
v 0.032555 0.121493 0.025690
v 0.032555 0.121493 -0.025690
v 0.038978 0.121493 0.025690
v 0.038978 0.121493 -0.025690
v 0.038978 0.153606 0.025690
v 0.038978 0.153606 -0.025690
v 0.032555 0.153606 0.025690
v 0.032555 0.153606 -0.025690
v 0.032555 0.166452 0.025690
v 0.032555 0.166452 -0.025690
v 0.024253 0.166452 0.025690
v 0.024253 0.166452 -0.025690
v 0.024253 0.172874 0.025690
v 0.024253 0.172874 -0.025690
v -0.018826 0.172874 0.025690
v -0.018826 0.172874 -0.025690
v -0.018826 0.166452 0.025690
v -0.018826 0.166452 -0.025690
v -0.031671 0.166452 0.025690
v -0.031671 0.166452 -0.025690
v -0.031671 0.153606 0.025690
v -0.031671 0.153606 -0.025690
v -0.038094 0.153606 0.025690
v -0.038094 0.153606 -0.025690
v -0.038094 0.121493 0.025690
v -0.038094 0.121493 -0.025690
v -0.031671 0.121493 0.025690
v -0.031671 0.121493 -0.025690
v -0.031671 0.102225 0.025690
v -0.031671 0.102225 -0.025690
v -0.025248 0.102225 0.025690
v -0.025248 0.102225 -0.025690
v -0.025248 0.095803 -0.009751
v 0.026133 0.095803 -0.009751
v 0.026133 0.102225 -0.009751
v 0.032555 0.102225 -0.009751
v 0.032555 0.121493 -0.009751
v 0.038978 0.121493 -0.009751
v 0.038978 0.153606 -0.009751
v 0.032555 0.153606 -0.009751
v 0.032555 0.166452 -0.009751
v 0.024253 0.166452 -0.009751
v 0.024253 0.172874 -0.009751
v -0.018826 0.172874 -0.009751
v -0.018826 0.166452 -0.009751
v -0.031671 0.166452 -0.009751
v -0.031671 0.153606 -0.009751
v -0.038094 0.153606 -0.009751
v -0.038094 0.121493 -0.009751
v -0.031671 0.121493 -0.009751
v -0.031671 0.102225 -0.009751
v -0.025248 0.102225 -0.009751
v 0.029089 0.193642 -0.016407
v 0.029089 0.193642 -0.019035
v 0.027720 0.193642 -0.016407
v 0.027720 0.193642 -0.019035
v -0.024037 0.193642 -0.016218
v -0.024037 0.193642 -0.019224
v -0.026460 0.193642 -0.016218
v -0.026460 0.193642 -0.019224
vt 0.000000 0.250000
vt 0.200000 0.250000
vt 0.200000 0.500000
vt 0.000000 0.500000
vt 0.975000 0.250000
vt 0.975000 0.500000
vt 0.950000 0.500000
vt 0.950000 0.250000
vt 0.474999 0.750000
vt 0.474999 0.500000
vt 0.499999 0.500000
vt 0.499999 0.750000
vt 0.725000 0.250000
vt 0.725000 0.500000
vt 0.650000 0.500000
vt 0.650000 0.250000
vt 0.550000 0.750000
vt 0.550000 0.500000
vt 0.575000 0.500000
vt 0.575000 0.750000
vt 0.325000 0.250000
vt 0.325000 0.500000
vt 0.200000 0.500000
vt 0.200000 0.250000
vt 0.524999 0.750000
vt 0.525000 1.000000
vt 0.500000 1.000000
vt 0.500000 0.750000
vt 0.850000 0.250000
vt 0.850000 0.500000
vt 0.800000 0.500000
vt 0.800000 0.250000
vt 0.650000 0.250000
vt 0.650000 0.500000
vt 0.550000 0.500000
vt 0.550000 0.250000
vt 0.150000 0.750000
vt 0.150000 1.000000
vt 0.125000 1.000000
vt 0.125000 0.750000
vt 0.550000 0.250000
vt 0.550000 0.500000
vt 0.450000 0.500000
vt 0.450000 0.250000
vt 0.600000 0.750000
vt 0.600000 1.000000
vt 0.575000 1.000000
vt 0.575000 0.750000
vt 0.900000 0.250000
vt 0.900000 0.500000
vt 0.850000 0.500000
vt 0.850000 0.250000
vt 0.900000 0.250000
vt 0.900000 0.000000
vt 0.950000 0.000000
vt 0.950000 0.250000
vt 0.550000 0.750000
vt 0.550000 1.000000
vt 0.525000 1.000000
vt 0.525000 0.750000
vt 0.325000 0.250000
vt 0.325000 0.000000
vt 0.450000 0.000000
vt 0.450000 0.250000
vt 0.650000 0.750000
vt 0.650000 1.000000
vt 0.625000 1.000000
vt 0.625000 0.750000
vt 0.725000 0.250000
vt 0.725000 0.000000
vt 0.800000 0.000000
vt 0.800000 0.250000
vt 1.000000 0.250000
vt 1.000000 0.500000
vt 0.975000 0.500000
vt 0.975000 0.250000
vt 0.725000 0.750000
vt 0.700000 0.750000
vt 0.700000 0.500000
vt 0.725000 0.500000
vt 0.800000 0.800000
vt 0.800000 0.700000
vt 0.825000 0.700000
vt 0.825000 0.800000
vt 0.700000 0.500000
vt 0.700000 0.750000
vt 0.650000 0.750000
vt 0.325000 0.800000
vt 0.325000 0.500000
vt 0.450000 0.500000
vt 0.450000 0.800000
vt 0.250000 0.750000
vt 0.250000 0.500000
vt 0.325000 0.500000
vt 0.325000 0.750000
vt 0.800000 0.500000
vt 0.825000 0.500000
vt 0.825000 0.700000
vt 0.800000 0.700000
vt 0.800000 0.700000
vt 0.800000 0.800000
vt 0.775000 0.800000
vt 0.775000 0.700000
vt 0.775000 0.500000
vt 0.775000 0.750000
vt 0.725000 0.750000
vt 0.725000 0.500000
vt 0.125000 0.500000
vt 0.125000 0.800000
vt 0.000000 0.800000
vt 0.000000 0.500000
vt 0.175000 0.750000
vt 0.175000 0.500000
vt 0.250000 0.500000
vt 0.250000 0.750000
vt 0.775000 0.700000
vt 0.775000 0.500000
vt 0.800000 0.500000
vt 0.800000 0.700000
vt 0.725000 1.000000
vt 0.700000 1.000000
vt 1.000000 0.000000
vt 0.975000 0.000000
vt 0.725000 0.500000
vt 0.800000 0.500000
vt 0.650000 0.500000
vt 0.625000 0.500000
vt 0.325000 0.500000
vt 0.450000 0.500000
vt 0.550000 0.500000
vt 0.525000 0.500000
vt 0.900000 0.500000
vt 0.950000 0.500000
vt 0.575000 0.500000
vt 0.575000 0.750000
vt 0.575000 0.500000
vt 0.600000 0.500000
vt 0.550000 0.000000
vt 0.450000 0.000000
vt 0.150000 0.500000
vt 0.125000 0.500000
vt 0.150000 0.500000
vt 0.150000 0.750000
vt 0.850000 0.000000
vt 0.800000 0.000000
vt 0.524999 0.500000
vt 0.499999 0.500000
vt 0.325000 0.000000
vt 0.200000 0.000000
vt 0.550000 1.000000
vt 0.575000 1.000000
vt 0.725000 0.000000
vt 0.650000 0.000000
vt 0.475000 1.000000
vt 0.499999 1.000000
vt 0.975000 0.000000
vt 0.950000 0.000000
vt 0.000000 0.000000
vt 0.200000 0.000000
vt 0.900000 0.000000
vt 0.900000 0.250000
vt 0.850000 0.250000
vt 0.850000 0.000000
vt 0.650000 0.000000
vt 0.650000 0.250000
vt 0.550000 0.250000
vt 0.550000 0.000000
vt 0.900000 0.500000
vt 0.900000 0.250000
vt 0.000000 0.000000
vt 0.000000 0.000000
vt 0.000000 0.000000
vt 0.000000 0.000000
vt 0.800000 0.250000
vt 0.800000 0.000000
vt 0.000000 0.000000
vt 0.000000 0.000000
vt 0.000000 0.000000
vt 0.000000 0.000000
vn 0.0000 1.0000 0.0000
vn -1.0000 0.0000 0.0000
vn 0.0000 -1.0000 0.0000
vn 1.0000 0.0000 0.0000
vn 0.0000 0.0000 -1.0000
vn 0.0000 0.0000 1.0000
vn -0.9821 -0.1882 0.0000
vn 0.9920 -0.1265 0.0000
vn 0.0000 -0.2378 -0.9713
vn 0.0000 -0.2314 -0.9729
vn 0.9821 -0.1882 0.0000
vn 0.0000 -0.2378 0.9713
vn -0.9920 -0.1265 0.0000
vn 0.0000 -0.2314 0.9729
usemtl base_mat
s off
f 41/1/1 42/2/1 4/3/1 3/4/1
f 42/5/2 2/6/2 5/7/2 43/8/2
f 43/9/1 5/10/1 7/11/1 44/12/1
f 44/13/2 7/14/2 9/15/2 45/16/2
f 45/17/1 9/18/1 11/19/1 46/20/1
f 46/21/2 11/22/2 13/23/2 47/24/2
f 47/25/3 13/26/3 15/27/3 48/28/3
f 48/29/2 15/30/2 17/31/2 49/32/2
f 49/33/3 17/34/3 19/35/3 50/36/3
f 50/37/2 19/38/2 21/39/2 51/40/2
f 51/41/3 21/42/3 23/43/3 52/44/3
f 52/45/4 23/46/4 25/47/4 53/48/4
f 53/49/3 25/50/3 27/51/3 54/52/3
f 54/53/4 27/54/4 29/55/4 55/56/4
f 55/57/3 29/58/3 31/59/3 56/60/3
f 56/61/4 31/62/4 33/63/4 57/64/4
f 57/65/1 33/66/1 35/67/1 58/68/1
f 58/69/4 35/70/4 37/71/4 59/72/4
f 59/73/1 37/74/1 39/75/1 60/76/1
f 41/77/4 60/78/4 39/79/4 1/80/4
f 19/81/5 25/82/5 23/83/5 21/84/5
f 15/85/5 29/86/5 27/87/5 17/34/5
f 11/88/5 33/89/5 31/90/5 13/91/5
f 7/92/5 37/93/5 35/94/5 9/95/5
f 1/96/5 39/97/5 5/98/5 2/99/5
f 22/100/6 24/101/6 26/102/6 20/103/6
f 18/104/6 28/105/6 30/106/6 16/107/6
f 14/108/6 32/109/6 34/110/6 12/111/6
f 10/112/6 36/113/6 38/114/6 8/115/6
f 3/116/6 4/117/6 6/118/6 40/119/6
f 3/120/4 40/121/4 60/78/4 41/77/4
f 38/122/1 59/73/1 60/76/1 40/123/1
f 36/124/4 58/69/4 59/72/4 38/125/4
f 34/126/1 57/65/1 58/68/1 36/127/1
f 32/128/4 56/61/4 57/64/4 34/129/4
f 30/130/3 55/57/3 56/60/3 32/131/3
f 28/132/4 54/53/4 55/56/4 30/133/4
f 26/134/7 53/48/7 65/135/7 66/136/7
f 24/137/4 52/45/4 53/48/4 26/134/4
f 22/138/3 51/41/3 52/44/3 24/139/3
f 20/140/2 50/37/2 51/40/2 22/141/2
f 50/37/8 20/140/8 64/142/8 63/143/8
f 16/144/2 48/29/2 49/32/2 18/145/2
f 14/146/3 47/25/3 48/28/3 16/147/3
f 12/148/2 46/21/2 47/24/2 14/149/2
f 10/150/1 45/17/1 46/20/1 12/151/1
f 8/152/2 44/13/2 45/16/2 10/153/2
f 6/154/1 43/9/1 44/12/1 8/155/1
f 4/156/2 42/5/2 43/8/2 6/157/2
f 1/158/1 2/159/1 42/2/1 41/1/1
f 66/160/3 65/161/3 67/162/3 68/163/3
f 62/164/3 61/165/3 63/166/3 64/167/3
f 49/33/9 50/36/9 63/166/9 61/165/9
f 53/49/10 54/52/10 67/162/10 65/161/10
f 54/53/11 28/132/11 68/168/11 67/169/11
f 20/170/12 18/171/12 62/172/12 64/173/12
f 18/145/13 49/32/13 61/174/13 62/175/13
f 28/176/14 26/177/14 66/178/14 68/179/14
