# Blender v2.79 (sub 0) OBJ File: 'head_1.blend'
# www.blender.org
mtllib head_1.mtl
o head_Plane
v -0.032963 0.087885 0.023860
v 0.038618 0.087885 0.023860
v -0.032963 0.087885 -0.023860
v 0.038618 0.087885 -0.023860
v 0.038618 0.093851 0.023860
v 0.038618 0.093851 -0.023860
v 0.044583 0.093851 0.023860
v 0.044583 0.093851 -0.023860
v 0.044583 0.129641 0.023860
v 0.044583 0.129641 -0.023860
v 0.038618 0.129641 0.023860
v 0.038618 0.129641 -0.023860
v 0.038618 0.141571 0.023860
v 0.038618 0.141571 -0.023860
v 0.032653 0.141571 0.023860
v 0.032653 0.141571 -0.023860
v 0.032653 0.153501 0.023860
v 0.032653 0.153501 -0.023860
v 0.026688 0.153501 0.023860
v 0.026688 0.153501 -0.023860
v 0.026688 0.159466 0.023860
v 0.026688 0.159466 -0.023860
v -0.015067 0.159466 0.023860
v -0.015067 0.159466 -0.023860
v -0.015067 0.153501 0.023860
v -0.015067 0.153501 -0.023860
v -0.026998 0.153501 0.023860
v -0.026998 0.153501 -0.023860
v -0.026998 0.141571 0.023860
v -0.026998 0.141571 -0.023860
v -0.032963 0.141571 0.023860
v -0.032963 0.141571 -0.023860
v -0.032963 0.129641 0.023860
v -0.032963 0.129641 -0.023860
v -0.038928 0.129641 0.023860
v -0.038928 0.129641 -0.023860
v -0.038928 0.093851 0.023860
v -0.038928 0.093851 -0.023860
v -0.032963 0.093851 0.023860
v -0.032963 0.093851 -0.023860
vt 0.000000 0.000000
vt 0.300000 0.000000
vt 0.300000 0.500000
vt 0.000000 0.500000
vt 1.000000 0.000000
vt 1.000000 0.500000
vt 0.975000 0.500000
vt 0.975000 0.000000
vt 0.499999 1.000000
vt 0.499999 0.500000
vt 0.524999 0.500000
vt 0.524999 1.000000
vt 0.624999 0.000000
vt 0.625000 0.500000
vt 0.475000 0.500000
vt 0.475000 0.000000
vt 0.499999 0.500000
vt 0.499999 1.000000
vt 0.474999 1.000000
vt 0.474999 0.500000
vt 0.875000 0.000000
vt 0.875000 0.500000
vt 0.825000 0.500000
vt 0.825000 0.000000
vt 0.599999 0.500000
vt 0.600000 1.000000
vt 0.575000 1.000000
vt 0.574999 0.500000
vt 0.824999 0.000000
vt 0.825000 0.500000
vt 0.775000 0.500000
vt 0.774999 0.000000
vt 0.675000 0.500000
vt 0.675000 1.000000
vt 0.650000 1.000000
vt 0.650000 0.500000
vt 0.625000 1.000000
vt 0.625000 0.500000
vt 0.475000 0.000000
vt 0.475000 0.500000
vt 0.300000 0.500000
vt 0.300000 0.000000
vt 0.750000 0.500000
vt 0.750000 1.000000
vt 0.725000 1.000000
vt 0.725000 0.500000
vt 0.925000 0.000000
vt 0.925000 0.500000
vt 0.875000 0.500000
vt 0.875000 0.000000
vt 0.925000 0.500000
vt 0.925000 0.000000
vt 0.975000 0.000000
vt 0.975000 0.500000
vt 0.625000 0.500000
vt 0.625000 1.000000
vt 0.600000 1.000000
vt 0.600000 0.500000
vt 0.374999 1.000000
vt 0.374999 0.500000
vt 0.424999 0.500000
vt 0.424999 1.000000
vt 0.999994 0.000000
vt 1.000000 1.000000
vt 0.000006 1.000000
vt 0.000000 0.000000
vt 0.625000 0.500000
vt 0.625000 0.000000
vt 0.774999 0.000000
vt 0.774999 0.500000
vt 0.524999 1.000000
vt 0.524999 0.500000
vt 0.549999 0.500000
vt 0.549999 1.000000
vt 0.775000 1.000000
vt 0.750000 1.000000
vt 0.750000 0.500000
vt 0.775000 0.500000
vt 0.875000 0.850000
vt 0.875000 0.675000
vt 0.900000 0.675000
vt 0.900000 0.850000
vt 0.825000 0.750000
vt 0.775000 0.750000
vt 0.175002 0.826000
vt 0.174997 0.526000
vt 0.224997 0.526000
vt 0.225002 0.825999
vt 0.025000 0.850000
vt 0.025000 0.500000
vt 0.175000 0.500000
vt 0.175000 0.850000
vt -0.000001 0.526000
vt 0.024999 0.526000
vt 0.025002 0.826000
vt 0.000002 0.826000
vt 0.900000 0.500000
vt 0.900000 0.675000
vt 0.875000 0.675000
vt 0.875000 0.500000
vt 0.725000 0.500000
vt 0.725000 0.750000
vt 0.675000 0.750000
vt 0.675000 0.500000
vt 0.474999 0.500000
vt 0.474999 0.800000
vt 0.424999 0.800000
vt 0.424999 0.500000
vt 0.224999 1.000000
vt 0.224999 0.650000
vt 0.374999 0.650000
vt 0.374999 1.000000
vt 0.825000 0.800000
vt 0.825000 0.500000
vt 0.850000 0.500000
vt 0.850000 0.800000
vn 0.0000 1.0000 0.0000
vn -1.0000 0.0000 0.0000
vn 0.0000 -1.0000 0.0000
vn 1.0000 0.0000 0.0000
vn 0.0000 0.0000 -1.0000
vn 0.0000 0.0000 1.0000
usemtl base_mat
s off
f 1/1/1 2/2/1 4/3/1 3/4/1
f 4/5/2 2/6/2 5/7/2 6/8/2
f 6/9/1 5/10/1 7/11/1 8/12/1
f 8/13/2 7/14/2 9/15/2 10/16/2
f 10/17/3 9/18/3 11/19/3 12/20/3
f 12/21/2 11/22/2 13/23/2 14/24/2
f 14/25/3 13/26/3 15/27/3 16/28/3
f 16/29/2 15/30/2 17/31/2 18/32/2
f 18/33/3 17/34/3 19/35/3 20/36/3
f 20/36/2 19/35/2 21/37/2 22/38/2
f 22/39/3 21/40/3 23/41/3 24/42/3
f 24/43/4 23/44/4 25/45/4 26/46/4
f 26/47/3 25/48/3 27/49/3 28/50/3
f 28/51/4 27/52/4 29/53/4 30/54/4
f 30/55/3 29/56/3 31/57/3 32/58/3
f 32/59/4 31/60/4 33/61/4 34/62/4
f 34/63/3 33/64/3 35/65/3 36/66/3
f 36/67/4 35/68/4 37/69/4 38/70/4
f 38/71/1 37/72/1 39/73/1 40/74/1
f 3/75/4 40/76/4 39/77/4 1/78/4
f 19/79/5 25/80/5 23/81/5 21/82/5
f 15/30/5 29/83/5 27/84/5 17/31/5
f 11/85/5 33/86/5 31/87/5 13/88/5
f 7/89/5 37/90/5 35/91/5 9/92/5
f 1/93/5 39/94/5 5/95/5 2/96/5
f 22/97/6 24/98/6 26/99/6 20/100/6
f 18/101/6 28/102/6 30/103/6 16/104/6
f 14/105/6 32/106/6 34/107/6 12/108/6
f 10/109/6 36/110/6 38/111/6 8/112/6
f 3/113/6 4/114/6 6/115/6 40/116/6
