# Blender v2.79 (sub 0) OBJ File: 'avatar_1.blend'
# www.blender.org
mtllib avatar_1.mtl
o arm.r_Plane.007
v -0.026998 0.081920 0.005965
v -0.021033 0.081920 0.005965
v -0.026998 0.081920 -0.005965
v -0.021033 0.081920 -0.005965
v -0.021033 0.046130 0.005965
v -0.021033 0.046130 -0.005965
v -0.026998 0.046130 0.005965
v -0.026998 0.046130 -0.005965
vn 0.0000 1.0000 0.0000
vn 1.0000 0.0000 0.0000
vn 0.0000 -1.0000 0.0000
vn -1.0000 0.0000 0.0000
vn 0.0000 0.0000 -1.0000
vn 0.0000 0.0000 1.0000
usemtl Skin
s off
f 1//1 2//1 4//1 3//1
f 4//2 2//2 5//2 6//2
f 6//3 5//3 7//3 8//3
f 3//4 8//4 7//4 1//4
f 4//5 6//5 8//5 3//5
f 1//6 7//6 5//6 2//6
o arm.l_Plane.006
v 0.026688 0.081920 0.005965
v 0.032653 0.081920 0.005965
v 0.026688 0.081920 -0.005965
v 0.032653 0.081920 -0.005965
v 0.032653 0.046130 0.005965
v 0.032653 0.046130 -0.005965
v 0.026688 0.046130 0.005965
v 0.026688 0.046130 -0.005965
vn 0.0000 1.0000 0.0000
vn 1.0000 0.0000 0.0000
vn 0.0000 -1.0000 0.0000
vn -1.0000 0.0000 0.0000
vn 0.0000 0.0000 -1.0000
vn 0.0000 0.0000 1.0000
usemtl Skin
s off
f 9//7 10//7 12//7 11//7
f 12//8 10//8 13//8 14//8
f 14//9 13//9 15//9 16//9
f 11//10 16//10 15//10 9//10
f 12//11 14//11 16//11 11//11
f 9//12 15//12 13//12 10//12
o leg.l_Plane.005
v 0.014758 0.040165 0.005965
v 0.020723 0.040165 0.005965
v 0.014758 0.040165 -0.005965
v 0.020723 0.040165 -0.005965
v 0.020723 -0.001590 0.005965
v 0.020723 -0.001590 -0.005965
v 0.014758 -0.001590 0.005965
v 0.014758 -0.001590 -0.005965
vt 0.857143 0.285714
vt 1.000000 0.285714
vt 1.000000 0.571429
vt 0.857143 0.571429
vt 0.285753 -0.000011
vt 0.571467 0.000011
vt 0.571390 1.000011
vt 0.285676 0.999989
vt 1.000000 0.000000
vt 1.000000 0.285714
vt 0.857143 0.285714
vt 0.857143 0.000000
vt 0.285714 0.000000
vt 0.285714 1.000000
vt 0.000000 1.000000
vt 0.000000 0.000000
vt 0.857143 0.000000
vt 0.857143 1.000000
vt 0.714286 1.000000
vt 0.714286 0.000000
vt 0.714285 0.000000
vt 0.714286 1.000000
vt 0.571428 0.000000
vn 0.0000 1.0000 0.0000
vn 1.0000 0.0000 0.0000
vn 0.0000 -1.0000 0.0000
vn -1.0000 0.0000 0.0000
vn 0.0000 0.0000 -1.0000
vn 0.0000 0.0000 1.0000
usemtl base_mat
s off
f 17/1/13 18/2/13 20/3/13 19/4/13
f 20/5/14 18/6/14 21/7/14 22/8/14
f 22/9/15 21/10/15 23/11/15 24/12/15
f 19/13/16 24/14/16 23/15/16 17/16/16
f 20/17/17 22/18/17 24/19/17 19/20/17
f 17/21/18 23/22/18 21/7/18 18/23/18
o leg.r_Plane.002
v -0.015067 0.040165 0.005965
v -0.009102 0.040165 0.005965
v -0.015067 0.040165 -0.005965
v -0.009102 0.040165 -0.005965
v -0.009102 -0.001590 0.005965
v -0.009102 -0.001590 -0.005965
v -0.015067 -0.001590 0.005965
v -0.015067 -0.001590 -0.005965
vt 0.857143 0.285714
vt 1.000000 0.285714
vt 1.000000 0.571429
vt 0.857143 0.571429
vt 0.285714 0.000000
vt 0.571428 -0.000000
vt 0.571429 1.000000
vt 0.285715 1.000000
vt 1.000000 0.000000
vt 1.000000 0.285714
vt 0.857143 0.285714
vt 0.857143 0.000000
vt 0.285714 0.000000
vt 0.285714 1.000000
vt 0.000000 1.000000
vt 0.000000 0.000000
vt 0.857143 0.000000
vt 0.857143 1.000000
vt 0.714286 1.000000
vt 0.714286 0.000000
vt 0.714285 0.000000
vt 0.714286 1.000000
vn 0.0000 1.0000 0.0000
vn 1.0000 0.0000 0.0000
vn 0.0000 -1.0000 0.0000
vn -1.0000 -0.0000 0.0000
vn 0.0000 0.0000 -1.0000
vn 0.0000 0.0000 1.0000
usemtl None
s off
f 25/24/19 26/25/19 28/26/19 27/27/19
f 28/28/20 26/29/20 29/30/20 30/31/20
f 30/32/21 29/33/21 31/34/21 32/35/21
f 27/36/22 32/37/22 31/38/22 25/39/22
f 28/40/23 30/41/23 32/42/23 27/43/23
f 25/44/24 31/45/24 29/30/24 26/29/24
o body_Plane.001
v -0.026998 0.087885 0.023860
v 0.032653 0.087885 0.023860
v -0.026998 0.087885 -0.023860
v 0.032653 0.087885 -0.023860
v 0.032653 0.081920 0.023860
v 0.032653 0.081920 -0.023860
v 0.026688 0.081920 0.023860
v 0.026688 0.081920 -0.023860
v 0.026688 0.040165 0.023860
v 0.026688 0.040165 -0.023860
v -0.021033 0.040165 0.023860
v -0.021033 0.040165 -0.023860
v -0.021033 0.081920 0.023860
v -0.021033 0.081920 -0.023860
v -0.026998 0.081920 0.023860
v -0.026998 0.081920 -0.023860
vt 0.000000 0.000000
vt 0.277777 0.000000
vt 0.277778 0.666667
vt 0.000000 0.666667
vt 0.972222 0.000000
vt 0.972222 0.666667
vt 0.944444 0.666667
vt 0.944444 0.000000
vt 0.916667 0.666667
vt 0.916667 0.000000
vt 0.888889 0.000000
vt 0.888889 0.666667
vt 0.694444 0.666667
vt 0.694444 0.000000
vt 0.500000 0.000000
vt 0.500000 0.666667
vt 0.277778 0.666667
vt 0.277778 0.000000
vt 0.694444 0.000000
vt 0.694444 0.666667
vt 0.500000 0.666667
vt 0.500000 0.000000
vt 0.972222 0.666667
vt 0.972222 0.000000
vt 1.000000 0.000000
vt 1.000000 0.666667
vt 0.888889 0.000000
vt 0.916666 0.000000
vt 0.916667 0.666667
vt 0.888889 0.666667
vt 0.416666 1.000000
vt 0.388889 1.000000
vt 0.388889 0.666667
vt 0.416666 0.666667
vt 0.388889 0.699425
vt 0.388889 0.966091
vt 0.194444 0.966091
vt 0.194444 0.699425
vt 0.416666 1.000000
vt 0.416667 0.666667
vt 0.444445 0.666667
vt 0.444444 1.000000
vt 0.639186 0.699417
vt 0.639207 0.966083
vt 0.444763 0.966099
vt 0.444741 0.699432
vn 0.0000 1.0000 0.0000
vn 1.0000 0.0000 0.0000
vn 0.0000 -1.0000 0.0000
vn -1.0000 0.0000 0.0000
vn 0.0000 0.0000 1.0000
vn 0.0000 0.0000 -1.0000
usemtl base_mat_avatar_body_1.png
s off
f 33/46/25 34/47/25 36/48/25 35/49/25
f 36/50/26 34/51/26 37/52/26 38/53/26
f 38/53/27 37/52/27 39/54/27 40/55/27
f 40/56/26 39/57/26 41/58/26 42/59/26
f 42/60/27 41/61/27 43/62/27 44/63/27
f 44/64/28 43/65/28 45/66/28 46/67/28
f 46/68/27 45/69/27 47/70/27 48/71/27
f 35/72/28 48/73/28 47/74/28 33/75/28
f 33/76/29 47/77/29 37/78/29 34/79/29
f 39/80/29 45/81/29 43/82/29 41/83/29
f 35/84/30 36/85/30 38/86/30 48/87/30
f 42/88/30 44/89/30 46/90/30 40/91/30
o head_Plane
v -0.032963 0.087885 0.023860
v 0.038618 0.087885 0.023860
v -0.032963 0.087885 -0.023860
v 0.038618 0.087885 -0.023860
v 0.038618 0.093851 0.023860
v 0.038618 0.093851 -0.023860
v 0.044583 0.093851 0.023860
v 0.044583 0.093851 -0.023860
v 0.044583 0.129641 0.023860
v 0.044583 0.129641 -0.023860
v 0.038618 0.129641 0.023860
v 0.038618 0.129641 -0.023860
v 0.038618 0.141571 0.023860
v 0.038618 0.141571 -0.023860
v 0.032653 0.141571 0.023860
v 0.032653 0.141571 -0.023860
v 0.032653 0.153501 0.023860
v 0.032653 0.153501 -0.023860
v 0.026688 0.153501 0.023860
v 0.026688 0.153501 -0.023860
v 0.026688 0.159466 0.023860
v 0.026688 0.159466 -0.023860
v -0.015067 0.159466 0.023860
v -0.015067 0.159466 -0.023860
v -0.015067 0.153501 0.023860
v -0.015067 0.153501 -0.023860
v -0.026998 0.153501 0.023860
v -0.026998 0.153501 -0.023860
v -0.026998 0.141571 0.023860
v -0.026998 0.141571 -0.023860
v -0.032963 0.141571 0.023860
v -0.032963 0.141571 -0.023860
v -0.032963 0.129641 0.023860
v -0.032963 0.129641 -0.023860
v -0.038928 0.129641 0.023860
v -0.038928 0.129641 -0.023860
v -0.038928 0.093851 0.023860
v -0.038928 0.093851 -0.023860
v -0.032963 0.093851 0.023860
v -0.032963 0.093851 -0.023860
vt 0.000000 0.000000
vt 0.300000 0.000000
vt 0.300000 0.500000
vt 0.000000 0.500000
vt 1.000000 0.000000
vt 1.000000 0.500000
vt 0.975000 0.500000
vt 0.975000 0.000000
vt 0.499999 1.000000
vt 0.499999 0.500000
vt 0.524999 0.500000
vt 0.524999 1.000000
vt 0.624999 0.000000
vt 0.625000 0.500000
vt 0.475000 0.500000
vt 0.475000 0.000000
vt 0.499999 0.500000
vt 0.499999 1.000000
vt 0.474999 1.000000
vt 0.474999 0.500000
vt 0.875000 0.000000
vt 0.875000 0.500000
vt 0.825000 0.500000
vt 0.825000 0.000000
vt 0.599999 0.500000
vt 0.600000 1.000000
vt 0.575000 1.000000
vt 0.574999 0.500000
vt 0.824999 0.000000
vt 0.825000 0.500000
vt 0.775000 0.500000
vt 0.774999 0.000000
vt 0.675000 0.500000
vt 0.675000 1.000000
vt 0.650000 1.000000
vt 0.650000 0.500000
vt 0.625000 1.000000
vt 0.625000 0.500000
vt 0.475000 0.000000
vt 0.475000 0.500000
vt 0.300000 0.500000
vt 0.300000 0.000000
vt 0.750000 0.500000
vt 0.750000 1.000000
vt 0.725000 1.000000
vt 0.725000 0.500000
vt 0.925000 0.000000
vt 0.925000 0.500000
vt 0.875000 0.500000
vt 0.875000 0.000000
vt 0.925000 0.500000
vt 0.925000 0.000000
vt 0.975000 0.000000
vt 0.975000 0.500000
vt 0.625000 0.500000
vt 0.625000 1.000000
vt 0.600000 1.000000
vt 0.600000 0.500000
vt 0.374999 1.000000
vt 0.374999 0.500000
vt 0.424999 0.500000
vt 0.424999 1.000000
vt 0.999994 0.000000
vt 1.000000 1.000000
vt 0.000006 1.000000
vt 0.000000 0.000000
vt 0.625000 0.500000
vt 0.625000 0.000000
vt 0.774999 0.000000
vt 0.774999 0.500000
vt 0.524999 1.000000
vt 0.524999 0.500000
vt 0.549999 0.500000
vt 0.549999 1.000000
vt 0.775000 1.000000
vt 0.750000 1.000000
vt 0.750000 0.500000
vt 0.775000 0.500000
vt 0.875000 0.850000
vt 0.875000 0.675000
vt 0.900000 0.675000
vt 0.900000 0.850000
vt 0.825000 0.750000
vt 0.775000 0.750000
vt 0.175002 0.826000
vt 0.174997 0.526000
vt 0.224997 0.526000
vt 0.225002 0.825999
vt 0.025000 0.850000
vt 0.025000 0.500000
vt 0.175000 0.500000
vt 0.175000 0.850000
vt -0.000001 0.526000
vt 0.024999 0.526000
vt 0.025002 0.826000
vt 0.000002 0.826000
vt 0.900000 0.500000
vt 0.900000 0.675000
vt 0.875000 0.675000
vt 0.875000 0.500000
vt 0.725000 0.500000
vt 0.725000 0.750000
vt 0.675000 0.750000
vt 0.675000 0.500000
vt 0.474999 0.500000
vt 0.474999 0.800000
vt 0.424999 0.800000
vt 0.424999 0.500000
vt 0.224999 1.000000
vt 0.224999 0.650000
vt 0.374999 0.650000
vt 0.374999 1.000000
vt 0.825000 0.800000
vt 0.825000 0.500000
vt 0.850000 0.500000
vt 0.850000 0.800000
vn 0.0000 1.0000 0.0000
vn -1.0000 0.0000 0.0000
vn 0.0000 -1.0000 0.0000
vn 1.0000 0.0000 0.0000
vn 0.0000 0.0000 -1.0000
vn 0.0000 0.0000 1.0000
usemtl base_mat_Untitled
s off
f 49/92/31 50/93/31 52/94/31 51/95/31
f 52/96/32 50/97/32 53/98/32 54/99/32
f 54/100/31 53/101/31 55/102/31 56/103/31
f 56/104/32 55/105/32 57/106/32 58/107/32
f 58/108/33 57/109/33 59/110/33 60/111/33
f 60/112/32 59/113/32 61/114/32 62/115/32
f 62/116/33 61/117/33 63/118/33 64/119/33
f 64/120/32 63/121/32 65/122/32 66/123/32
f 66/124/33 65/125/33 67/126/33 68/127/33
f 68/127/32 67/126/32 69/128/32 70/129/32
f 70/130/33 69/131/33 71/132/33 72/133/33
f 72/134/34 71/135/34 73/136/34 74/137/34
f 74/138/33 73/139/33 75/140/33 76/141/33
f 76/142/34 75/143/34 77/144/34 78/145/34
f 78/146/33 77/147/33 79/148/33 80/149/33
f 80/150/34 79/151/34 81/152/34 82/153/34
f 82/154/33 81/155/33 83/156/33 84/157/33
f 84/158/34 83/159/34 85/160/34 86/161/34
f 86/162/31 85/163/31 87/164/31 88/165/31
f 51/166/34 88/167/34 87/168/34 49/169/34
f 67/170/35 73/171/35 71/172/35 69/173/35
f 63/121/35 77/174/35 75/175/35 65/122/35
f 59/176/35 81/177/35 79/178/35 61/179/35
f 55/180/35 85/181/35 83/182/35 57/183/35
f 49/184/35 87/185/35 53/186/35 50/187/35
f 70/188/36 72/189/36 74/190/36 68/191/36
f 66/192/36 76/193/36 78/194/36 64/195/36
f 62/196/36 80/197/36 82/198/36 60/199/36
f 58/200/36 84/201/36 86/202/36 56/203/36
f 51/204/36 52/205/36 54/206/36 88/207/36
