# Blender v2.79 (sub 0) OBJ File: 'cresta.blend'
# www.blender.org
mtllib cresta.mtl
o cabeza_Plane.003
v -0.300000 0.000000 0.400000
v 0.200000 0.000000 0.400000
v -0.300000 0.000000 -0.400000
v 0.200000 0.000000 -0.400000
v 0.200000 0.000000 0.400000
v 0.200000 0.000000 -0.400000
v 0.200000 0.000000 0.400000
v 0.200000 0.000000 -0.400000
v 0.300000 0.000000 0.400000
v 0.300000 0.000000 -0.400000
v 0.300000 0.100000 0.400000
v 0.300000 0.100000 -0.400000
v 0.500000 0.100000 0.400000
v 0.500000 0.100000 -0.400000
v 0.500000 0.800000 0.400000
v 0.500000 0.800000 -0.400000
v 0.400000 0.800000 0.400000
v 0.400000 0.800000 -0.400000
v 0.400000 0.900000 0.400000
v 0.400000 0.900000 -0.400000
v 0.300000 0.900000 0.400000
v 0.300000 0.900000 -0.400000
v 0.300000 1.000000 0.400000
v 0.300000 1.000000 -0.400000
v -0.300000 1.000000 0.400000
v -0.300000 1.000000 -0.400000
v -0.300000 0.900000 0.400000
v -0.300000 0.900000 -0.400000
v -0.400000 0.900000 0.400000
v -0.400000 0.900000 -0.400000
v -0.400000 0.800000 0.400000
v -0.400000 0.800000 -0.400000
v -0.500000 0.800000 0.400000
v -0.500000 0.800000 -0.400000
v -0.500000 0.100000 0.400000
v -0.500000 0.100000 -0.400000
v -0.300000 0.100000 0.400000
v -0.300000 0.100000 -0.400000
v -0.300000 0.000000 0.400000
v -0.300000 0.000000 -0.400000
vt 0.791666 0.666666
vt 0.583333 0.666666
vt 0.583333 0.333333
vt 0.791666 0.333333
vt 0.000000 0.000000
vt 0.000000 0.000000
vt 0.000000 0.000000
vt 0.000000 0.000000
vt 0.583333 1.000000
vt 0.583333 0.666666
vt 0.583333 0.666666
vt 0.583333 1.000000
vt 0.625000 0.666666
vt 0.625000 1.000000
vt 0.958333 0.333333
vt 0.958333 0.666666
vt 0.916667 0.666667
vt 0.916667 0.333333
vt 0.791667 0.666666
vt 0.791666 0.333333
vt 0.875000 0.333333
vt 0.875000 0.666666
vt 0.291667 0.416667
vt 0.291667 0.750000
vt 0.000000 0.750000
vt 0.000000 0.416667
vt 0.750000 0.666666
vt 0.750000 1.000000
vt 0.708333 1.000000
vt 0.708333 0.666666
vt 0.958333 0.000000
vt 0.958333 0.333333
vt 0.916667 0.333333
vt 0.916666 0.000000
vt 0.708333 0.666666
vt 0.708333 1.000000
vt 0.666667 1.000000
vt 0.666667 0.666666
vt 1.000000 0.000000
vt 1.000000 0.333333
vt 0.958333 0.333333
vt 0.958333 0.000000
vt 0.833333 0.000000
vt 0.833333 0.333333
vt 0.583333 0.333333
vt 0.583333 0.000000
vt 0.875000 1.000000
vt 0.875000 0.666667
vt 0.916666 0.666667
vt 0.916666 1.000000
vt 0.791667 0.666666
vt 0.791667 1.000000
vt 0.750000 1.000000
vt 0.750000 0.666666
vt 0.958333 0.666667
vt 0.958333 0.333333
vt 1.000000 0.333333
vt 1.000000 0.666667
vt 0.666667 0.666666
vt 0.666667 1.000000
vt 0.625000 1.000000
vt 0.625000 0.666666
vt 0.291667 0.750000
vt 0.291667 0.416667
vt 0.583333 0.416667
vt 0.583333 0.750000
vt 0.833333 0.333333
vt 0.833333 0.000000
vt 0.916666 0.000000
vt 0.916666 0.333333
vt 0.916666 1.000000
vt 0.916666 0.666667
vt 0.958333 0.666667
vt 0.958333 1.000000
vt 0.000000 0.416667
vt 0.000000 0.000000
vt 0.291667 0.000000
vt 0.291667 0.416667
vt 0.125000 0.750000
vt 0.125000 1.000000
vt 0.083333 1.000000
vt 0.083333 0.750000
vt 0.125000 1.000000
vt 0.125000 0.750000
vt 0.166667 0.750000
vt 0.166667 1.000000
vt 0.833333 0.666666
vt 0.833333 1.000000
vt 0.791667 1.000000
vt 0.791667 0.666666
vt 0.083333 0.750000
vt 0.083333 1.000000
vt 0.041667 1.000000
vt 0.041667 0.750000
vt 0.916667 0.333333
vt 0.916667 0.666667
vt 0.875000 0.666667
vt 0.875000 0.333333
vt 0.291667 0.416667
vt 0.291667 0.000000
vt 0.583333 0.000000
vt 0.583333 0.416667
vt 0.041667 0.750000
vt 0.041667 1.000000
vt 0.000000 1.000000
vt 0.000000 0.750000
vn 0.0000 1.0000 0.0000
vn 0.0000 0.0000 1.0000
vn -1.0000 0.0000 0.0000
vn 0.0000 -1.0000 0.0000
vn 1.0000 0.0000 0.0000
vn 0.0000 0.0000 -1.0000
usemtl Skin
s off
f 1/1/1 2/2/1 4/3/1 3/4/1
f 4/5/2 2/6/2 5/7/2 6/8/2
f 6/9/1 5/10/1 7/11/1 8/12/1
f 8/12/1 7/11/1 9/13/1 10/14/1
f 10/15/3 9/16/3 11/17/3 12/18/3
f 12/19/1 11/20/1 13/21/1 14/22/1
f 14/23/3 13/24/3 15/25/3 16/26/3
f 16/27/4 15/28/4 17/29/4 18/30/4
f 18/31/3 17/32/3 19/33/3 20/34/3
f 20/35/4 19/36/4 21/37/4 22/38/4
f 22/39/3 21/40/3 23/41/3 24/42/3
f 24/43/4 23/44/4 25/45/4 26/46/4
f 26/47/5 25/48/5 27/49/5 28/50/5
f 28/51/4 27/52/4 29/53/4 30/54/4
f 30/55/5 29/56/5 31/57/5 32/58/5
f 32/59/4 31/60/4 33/61/4 34/62/4
f 34/63/5 33/64/5 35/65/5 36/66/5
f 36/67/1 35/68/1 37/69/1 38/70/1
f 38/71/5 37/72/5 39/73/5 40/74/5
f 13/75/6 35/76/6 33/77/6 15/78/6
f 9/79/6 39/80/6 37/81/6 11/82/6
f 21/83/6 27/84/6 25/85/6 23/86/6
f 17/87/6 31/88/6 29/89/6 19/90/6
f 24/91/2 26/92/2 28/93/2 22/94/2
f 20/95/2 30/96/2 32/97/2 18/98/2
f 16/99/2 34/100/2 36/101/2 14/102/2
f 12/103/2 38/104/2 40/105/2 10/106/2
o arm.r_Plane.007
v -0.500000 -0.100000 0.100000
v -0.400000 -0.100000 0.100000
v -0.500000 -0.100000 -0.100000
v -0.400000 -0.100000 -0.100000
v -0.400000 -0.700000 0.100000
v -0.400000 -0.700000 -0.100000
v -0.500000 -0.700000 0.100000
v -0.500000 -0.700000 -0.100000
vn 0.0000 1.0000 0.0000
vn 1.0000 0.0000 0.0000
vn 0.0000 -1.0000 0.0000
vn -1.0000 0.0000 0.0000
vn 0.0000 0.0000 -1.0000
vn 0.0000 0.0000 1.0000
usemtl Skin_NONE
s off
f 41//7 42//7 44//7 43//7
f 44//8 42//8 45//8 46//8
f 46//9 45//9 47//9 48//9
f 43//10 48//10 47//10 41//10
f 44//11 46//11 48//11 43//11
f 41//12 47//12 45//12 42//12
o arm.l_Plane.006
v 0.400000 -0.100000 0.100000
v 0.500000 -0.100000 0.100000
v 0.400000 -0.100000 -0.100000
v 0.500000 -0.100000 -0.100000
v 0.500000 -0.700000 0.100000
v 0.500000 -0.700000 -0.100000
v 0.400000 -0.700000 0.100000
v 0.400000 -0.700000 -0.100000
vn 0.0000 1.0000 0.0000
vn 1.0000 0.0000 0.0000
vn 0.0000 -1.0000 0.0000
vn -1.0000 0.0000 0.0000
vn 0.0000 0.0000 -1.0000
vn 0.0000 0.0000 1.0000
usemtl Skin_NONE
s off
f 49//13 50//13 52//13 51//13
f 52//14 50//14 53//14 54//14
f 54//15 53//15 55//15 56//15
f 51//16 56//16 55//16 49//16
f 52//17 54//17 56//17 51//17
f 49//18 55//18 53//18 50//18
o leg.l_Plane.005
v 0.200000 -0.800000 0.100000
v 0.300000 -0.800000 0.100000
v 0.200000 -0.800000 -0.100000
v 0.300000 -0.800000 -0.100000
v 0.300000 -1.500000 0.100000
v 0.300000 -1.500000 -0.100000
v 0.200000 -1.500000 0.100000
v 0.200000 -1.500000 -0.100000
vt 0.857143 0.285714
vt 1.000000 0.285714
vt 1.000000 0.571429
vt 0.857143 0.571429
vt 0.285753 -0.000011
vt 0.571467 0.000011
vt 0.571390 1.000011
vt 0.285676 0.999989
vt 1.000000 0.000000
vt 1.000000 0.285714
vt 0.857143 0.285714
vt 0.857143 0.000000
vt 0.285714 0.000000
vt 0.285714 1.000000
vt 0.000000 1.000000
vt 0.000000 0.000000
vt 0.857143 0.000000
vt 0.857143 1.000000
vt 0.714286 1.000000
vt 0.714286 0.000000
vt 0.714285 0.000000
vt 0.714286 1.000000
vt 0.571428 0.000000
vn 0.0000 1.0000 0.0000
vn 1.0000 0.0000 0.0000
vn 0.0000 -1.0000 0.0000
vn -1.0000 -0.0000 0.0000
vn 0.0000 0.0000 -1.0000
vn 0.0000 0.0000 1.0000
usemtl None
s off
f 57/107/19 58/108/19 60/109/19 59/110/19
f 60/111/20 58/112/20 61/113/20 62/114/20
f 62/115/21 61/116/21 63/117/21 64/118/21
f 59/119/22 64/120/22 63/121/22 57/122/22
f 60/123/23 62/124/23 64/125/23 59/126/23
f 57/127/24 63/128/24 61/113/24 58/129/24
o leg.r_Plane.002
v -0.300000 -0.800000 0.100000
v -0.200000 -0.800000 0.100000
v -0.300000 -0.800000 -0.100000
v -0.200000 -0.800000 -0.100000
v -0.200000 -1.500000 0.100000
v -0.200000 -1.500000 -0.100000
v -0.300000 -1.500000 0.100000
v -0.300000 -1.500000 -0.100000
vt 0.857143 0.285714
vt 1.000000 0.285714
vt 1.000000 0.571429
vt 0.857143 0.571429
vt 0.285714 0.000000
vt 0.571428 -0.000000
vt 0.571429 1.000000
vt 0.285715 1.000000
vt 1.000000 0.000000
vt 1.000000 0.285714
vt 0.857143 0.285714
vt 0.857143 0.000000
vt 0.285714 0.000000
vt 0.285714 1.000000
vt 0.000000 1.000000
vt 0.000000 0.000000
vt 0.857143 0.000000
vt 0.857143 1.000000
vt 0.714286 1.000000
vt 0.714286 0.000000
vt 0.714285 0.000000
vt 0.714286 1.000000
vn 0.0000 1.0000 0.0000
vn 1.0000 0.0000 0.0000
vn 0.0000 -1.0000 0.0000
vn -1.0000 0.0000 0.0000
vn 0.0000 0.0000 -1.0000
vn 0.0000 0.0000 1.0000
usemtl None
s off
f 65/130/25 66/131/25 68/132/25 67/133/25
f 68/134/26 66/135/26 69/136/26 70/137/26
f 70/138/27 69/139/27 71/140/27 72/141/27
f 67/142/28 72/143/28 71/144/28 65/145/28
f 68/146/29 70/147/29 72/148/29 67/149/29
f 65/150/30 71/151/30 69/136/30 66/135/30
o body_Plane.001
v -0.500000 0.000000 0.400000
v 0.500000 0.000000 0.400000
v -0.500000 0.000000 -0.400000
v 0.500000 0.000000 -0.400000
v 0.500000 -0.100000 0.400000
v 0.500000 -0.100000 -0.400000
v 0.400000 -0.100000 0.400000
v 0.400000 -0.100000 -0.400000
v 0.400000 -0.800000 0.400000
v 0.400000 -0.800000 -0.400000
v -0.400000 -0.800000 0.400000
v -0.400000 -0.800000 -0.400000
v -0.400000 -0.100000 0.400000
v -0.400000 -0.100000 -0.400000
v -0.500000 -0.100000 0.400000
v -0.500000 -0.100000 -0.400000
vt 0.000000 0.000000
vt 0.277777 0.000000
vt 0.277778 0.666667
vt 0.000000 0.666667
vt 0.972222 0.000000
vt 0.972222 0.666667
vt 0.944444 0.666667
vt 0.944444 0.000000
vt 0.916667 0.666667
vt 0.916667 0.000000
vt 0.888889 0.000000
vt 0.888889 0.666667
vt 0.694444 0.666667
vt 0.694444 0.000000
vt 0.500000 0.000000
vt 0.500000 0.666667
vt 0.277778 0.666667
vt 0.277778 0.000000
vt 0.694444 0.000000
vt 0.694444 0.666667
vt 0.500000 0.666667
vt 0.500000 0.000000
vt 0.972222 0.666667
vt 0.972222 0.000000
vt 1.000000 0.000000
vt 1.000000 0.666667
vt 0.888889 0.000000
vt 0.916666 0.000000
vt 0.916667 0.666667
vt 0.888889 0.666667
vt 0.416666 1.000000
vt 0.388889 1.000000
vt 0.388889 0.666667
vt 0.416666 0.666667
vt 0.388889 0.699425
vt 0.388889 0.966091
vt 0.194444 0.966091
vt 0.194444 0.699425
vt 0.416666 1.000000
vt 0.416667 0.666667
vt 0.444445 0.666667
vt 0.444444 1.000000
vt 0.639186 0.699417
vt 0.639207 0.966083
vt 0.444763 0.966099
vt 0.444741 0.699432
vn 0.0000 1.0000 0.0000
vn 1.0000 0.0000 0.0000
vn 0.0000 -1.0000 0.0000
vn -1.0000 0.0000 0.0000
vn 0.0000 0.0000 1.0000
vn -0.0000 0.0000 -1.0000
usemtl None_avatar_body_bold.png
s off
f 73/152/31 74/153/31 76/154/31 75/155/31
f 76/156/32 74/157/32 77/158/32 78/159/32
f 78/159/33 77/158/33 79/160/33 80/161/33
f 80/162/32 79/163/32 81/164/32 82/165/32
f 82/166/33 81/167/33 83/168/33 84/169/33
f 84/170/34 83/171/34 85/172/34 86/173/34
f 86/174/33 85/175/33 87/176/33 88/177/33
f 75/178/34 88/179/34 87/180/34 73/181/34
f 73/182/35 87/183/35 77/184/35 74/185/35
f 79/186/35 85/187/35 83/188/35 81/189/35
f 75/190/36 76/191/36 78/192/36 88/193/36
f 82/194/36 84/195/36 86/196/36 80/197/36
