# Blender v2.79 (sub 0) OBJ File: 'testAvatar.blend'
# www.blender.org
mtllib testAvatar.mtl
o Cube.001
v 0.017233 0.006961 -0.025786
v 0.017233 0.007012 -0.020585
v 0.017233 -0.000349 -0.020157
v 0.017233 -0.000349 -0.025786
v 0.017233 0.007095 -0.012040
v 0.017233 -0.000349 -0.012040
v 0.017233 0.143337 -0.007340
v 0.017233 0.137599 -0.007437
v 0.017233 0.137588 -0.012647
v 0.017233 0.143300 -0.012289
v -0.017233 0.006961 -0.025786
v -0.017233 -0.000349 -0.025786
v -0.017233 -0.000349 -0.020157
v -0.017233 0.007012 -0.020585
v -0.017233 -0.000349 -0.012040
v -0.017233 0.007095 -0.012040
v 0.017233 0.006961 0.025786
v 0.017233 -0.000349 0.025786
v 0.017233 -0.000349 0.020157
v 0.017233 0.007012 0.020585
v 0.017233 -0.000349 0.012039
v 0.017233 0.007095 0.012039
v 0.017233 0.143337 0.007340
v 0.017233 0.143300 0.012289
v 0.017233 0.137588 0.012647
v 0.017233 0.137599 0.007436
v -0.017233 0.006961 0.025786
v -0.017233 0.007012 0.020585
v -0.017233 -0.000349 0.020157
v -0.017233 -0.000349 0.025786
v -0.017233 0.007095 0.012039
v -0.017233 -0.000349 0.012039
v 0.017233 0.150684 -0.020295
v 0.017233 0.150684 -0.012848
v 0.017233 0.139080 -0.020465
v 0.017233 0.094647 -0.033034
v 0.017233 0.094647 -0.028314
v 0.017233 0.049985 -0.025824
v 0.017233 0.050006 -0.033034
v 0.017233 0.043358 -0.025786
v 0.017233 0.043358 -0.033034
v 0.017233 0.049973 -0.021773
v 0.017233 0.043358 -0.021773
v 0.017233 0.094647 -0.021773
v 0.017233 0.099396 -0.014247
v 0.017233 0.099463 0.000000
v 0.017233 0.094647 0.000000
v 0.017233 0.094647 -0.014247
v 0.017233 0.106044 -0.018996
v 0.017233 0.106098 -0.013329
v 0.017233 0.099396 -0.018906
v 0.017233 0.099396 -0.022795
v 0.017233 0.106044 -0.022795
v 0.017233 0.106224 0.000000
v 0.017233 0.110589 -0.015006
v 0.017233 0.110589 -0.018996
v 0.017233 0.110762 0.000000
v 0.017233 0.116279 -0.015006
v 0.017233 0.116361 -0.008815
v 0.017233 0.116477 0.000000
v 0.017233 0.131934 -0.020871
v 0.017233 0.131934 -0.026444
v 0.017233 0.139080 -0.026444
v 0.017233 0.143399 0.000000
v 0.017233 0.150684 -0.008239
v 0.017233 0.150684 0.000000
v 0.017233 0.137617 0.000000
v 0.017233 0.116279 -0.020871
v -0.017233 0.094647 -0.033034
v -0.017233 0.050006 -0.033034
v -0.017233 0.049985 -0.025824
v -0.017233 0.094647 -0.028314
v -0.017233 0.043358 -0.033034
v -0.017233 0.043358 -0.025786
v -0.017233 0.043358 -0.021773
v -0.017233 0.049973 -0.021773
v -0.017233 0.094647 -0.021773
v -0.017233 0.116279 -0.015006
v -0.017233 0.110589 -0.015006
v -0.017233 0.110762 0.000000
v -0.017233 0.116477 0.000000
v -0.017233 0.116361 -0.008815
v -0.017233 0.139080 -0.020465
v -0.017233 0.139080 -0.026444
v -0.017233 0.131934 -0.026444
v -0.017233 0.131934 -0.020871
v -0.017233 0.132007 -0.007437
v -0.017233 0.131996 -0.012647
v -0.017233 0.116279 -0.020871
v -0.017233 0.132024 0.000000
v -0.017233 0.110589 -0.018996
v 0.017233 0.150684 0.020294
v 0.017233 0.139080 0.020464
v 0.017233 0.150684 0.012848
v 0.017233 0.094647 0.033034
v 0.017233 0.050006 0.033034
v 0.017233 0.049985 0.025824
v 0.017233 0.094647 0.028313
v 0.017233 0.043358 0.033034
v 0.017233 0.043358 0.025786
v 0.017233 0.043358 0.021773
v 0.017233 0.049973 0.021773
v 0.017233 0.094647 0.021773
v 0.017233 0.099396 0.014247
v 0.017233 0.094647 0.014247
v 0.017233 0.106044 0.018996
v 0.017233 0.099396 0.018906
v 0.017233 0.106098 0.013328
v 0.017233 0.106044 0.022795
v 0.017233 0.099396 0.022795
v 0.017233 0.110589 0.015006
v 0.017233 0.110589 0.018996
v 0.017233 0.116279 0.015006
v 0.017233 0.116361 0.008815
v 0.017233 0.139080 0.026444
v 0.017233 0.131934 0.026444
v 0.017233 0.131934 0.020871
v 0.017233 0.150684 0.008239
v 0.017233 0.116279 0.020871
v -0.017233 0.094647 0.033034
v -0.017233 0.094647 0.028313
v -0.017233 0.049985 0.025824
v -0.017233 0.050006 0.033034
v -0.017233 0.043358 0.025786
v -0.017233 0.043358 0.033034
v -0.017233 0.049973 0.021773
v -0.017233 0.043358 0.021773
v -0.017233 0.094647 0.021773
v -0.017233 0.116279 0.015006
v -0.017233 0.116361 0.008815
v -0.017233 0.110589 0.015006
v -0.017233 0.139080 0.020464
v -0.017233 0.131934 0.020871
v -0.017233 0.131934 0.026444
v -0.017233 0.139080 0.026444
v -0.017233 0.131996 0.012647
v -0.017233 0.132007 0.007436
v -0.017233 0.116279 0.020871
v -0.017233 0.099463 0.000000
v -0.017233 0.106224 0.000000
v -0.017233 0.110589 0.018996
v -0.017233 0.094647 0.000000
v -0.017233 0.143399 0.000000
v -0.017233 0.150684 0.000000
v 0.017233 0.110589 -0.022901
v 0.017233 0.106290 -0.028116
v 0.017233 0.110589 -0.028116
v 0.017233 0.099415 -0.028173
v 0.017233 0.099433 -0.033034
v 0.017233 0.106290 -0.033034
v 0.017233 0.049819 -0.011956
v 0.017233 0.049632 0.000000
v -0.017233 0.110589 -0.022901
v -0.017233 0.106044 -0.022795
v -0.017233 0.106044 -0.018996
v -0.017233 0.110589 -0.028116
v -0.017233 0.106290 -0.028116
v -0.017233 0.099415 -0.028173
v -0.017233 0.099396 -0.022795
v -0.017233 0.099433 -0.033034
v -0.017233 0.106290 -0.033034
v -0.017233 0.049819 -0.011956
v -0.017233 0.094647 -0.014247
v -0.017233 0.099396 -0.014247
v -0.017233 0.099396 -0.018906
v -0.017233 0.049632 0.000000
v -0.017233 0.106098 -0.013329
v 0.017233 0.110589 0.022901
v 0.017233 0.110589 0.028115
v 0.017233 0.106290 0.028115
v 0.017233 0.099415 0.028173
v 0.017233 0.099433 0.033034
v 0.017233 0.106290 0.033034
v 0.017233 0.049819 0.011955
v -0.017233 0.106044 0.018996
v -0.017233 0.106044 0.022795
v -0.017233 0.110589 0.022901
v -0.017233 0.106290 0.028115
v -0.017233 0.110589 0.028115
v -0.017233 0.099396 0.022795
v -0.017233 0.099415 0.028173
v -0.017233 0.099433 0.033034
v -0.017233 0.106290 0.033034
v -0.017233 0.094647 0.014247
v -0.017233 0.049819 0.011955
v -0.017233 0.099396 0.018906
v -0.017233 0.099396 0.014247
v -0.017233 0.106098 0.013328
v 0.017233 0.043358 -0.012040
v 0.017233 0.043358 0.000000
v -0.017233 0.043358 -0.012040
v -0.017233 0.043358 0.000000
v 0.017233 0.043358 0.012039
v -0.017233 0.043358 0.012039
v 0.017233 0.162082 0.000000
v 0.017233 0.156450 0.000000
v 0.017233 0.156151 -0.014946
v 0.017233 0.162082 -0.014946
v 0.017233 0.150776 -0.026444
v 0.017233 0.156151 -0.020295
v -0.017233 0.162082 0.000000
v -0.017233 0.162082 -0.014946
v -0.017233 0.156151 -0.014946
v -0.017233 0.156450 0.000000
v -0.017233 0.150684 -0.020295
v -0.017233 0.143300 -0.012289
v -0.017233 0.150684 -0.012848
v -0.017233 0.150776 -0.026444
v -0.017233 0.150684 -0.008239
v -0.017233 0.156151 -0.020295
v -0.017233 0.143337 -0.007340
v 0.017233 0.162082 0.014946
v 0.017233 0.156151 0.014946
v 0.017233 0.150776 0.026444
v 0.017233 0.156151 0.020294
v -0.017233 0.156151 0.014946
v -0.017233 0.162082 0.014946
v -0.017233 0.150684 0.020294
v -0.017233 0.150684 0.012848
v -0.017233 0.143300 0.012289
v -0.017233 0.150776 0.026444
v -0.017233 0.150684 0.008239
v -0.017233 0.156151 0.020294
v -0.017233 0.143337 0.007340
vn 1.0000 -0.0000 -0.0000
vn -1.0000 -0.0000 0.0000
vn 0.0000 1.0000 0.0000
vn -0.0000 0.0000 -1.0000
vn 0.0000 0.9999 0.0150
vn 0.0000 -0.0000 1.0000
vn -0.0000 0.9999 -0.0150
vn 0.0000 -1.0000 0.0000
usemtl pelo
s 1
f 195//1 196//1 197//1 198//1
f 35//1 63//1 199//1 33//1
f 197//1 196//1 66//1 65//1 34//1
f 34//1 33//1 200//1 197//1
f 201//2 202//2 203//2 204//2
f 205//2 83//2 206//2 207//2
f 83//2 205//2 208//2 84//2
f 203//2 207//2 209//2 144//2 204//2
f 207//2 203//2 210//2 205//2
f 143//2 144//2 209//2 211//2
f 90//2 143//2 211//2 87//2
f 83//2 86//2 88//2 206//2
f 211//2 206//2 88//2 87//2
f 209//2 207//2 206//2 211//2
f 198//3 202//3 201//3 195//3
f 197//4 203//4 202//4 198//4
f 200//3 210//3 203//3 197//3
f 33//4 205//4 210//4 200//4
f 199//5 208//5 205//5 33//5
f 63//4 84//4 208//4 199//4
f 195//1 212//1 213//1 196//1
f 93//1 92//1 214//1 115//1
f 213//1 94//1 118//1 66//1 196//1
f 94//1 213//1 215//1 92//1
f 201//2 204//2 216//2 217//2
f 218//2 219//2 220//2 132//2
f 132//2 135//2 221//2 218//2
f 216//2 204//2 144//2 222//2 219//2
f 219//2 218//2 223//2 216//2
f 143//2 224//2 222//2 144//2
f 90//2 137//2 224//2 143//2
f 132//2 220//2 136//2 133//2
f 224//2 137//2 136//2 220//2
f 222//2 224//2 220//2 219//2
f 212//3 195//3 201//3 217//3
f 213//6 212//6 217//6 216//6
f 215//3 213//3 216//3 223//3
f 195//4 196//4 204//4 201//4
f 92//6 215//6 223//6 218//6
f 214//7 92//7 218//7 221//7
f 196//4 66//4 144//4 204//4
f 115//6 214//6 221//6 135//6
usemtl carne
f 33//1 34//1 10//1 35//1
f 36//1 37//1 38//1 39//1
f 39//1 38//1 40//1 41//1
f 40//1 38//1 42//1 43//1
f 38//1 37//1 44//1 42//1
f 45//1 46//1 47//1 48//1
f 49//1 50//1 45//1 51//1
f 51//1 52//1 53//1 49//1
f 45//1 50//1 54//1 46//1
f 55//1 50//1 49//1 56//1
f 55//1 57//1 54//1 50//1
f 58//1 59//1 60//1 57//1 55//1
f 35//1 61//1 62//1 63//1
f 58//1 9//1 8//1 59//1
f 64//1 7//1 65//1 66//1
f 67//1 8//1 7//1 64//1
f 35//1 10//1 9//1 61//1
f 61//1 9//1 58//1 68//1
f 65//1 7//1 10//1 34//1
f 59//1 8//1 67//1 60//1
f 69//2 70//2 71//2 72//2
f 70//2 73//2 74//2 71//2
f 74//2 75//2 76//2 71//2
f 71//2 76//2 77//2 72//2
f 78//2 79//2 80//2 81//2 82//2
f 83//2 84//2 85//2 86//2
f 78//2 82//2 87//2 88//2
f 86//2 89//2 78//2 88//2
f 82//2 81//2 90//2 87//2
f 41//4 73//4 70//4 39//4
f 40//8 74//8 73//8 41//8
f 39//4 70//4 69//4 36//4
f 56//3 91//3 79//3 55//3
f 62//4 85//4 84//4 63//4
f 61//8 86//8 85//8 62//8
f 68//4 89//4 86//4 61//4
f 58//8 78//8 89//8 68//8
f 55//4 79//4 78//4 58//4
f 92//1 93//1 24//1 94//1
f 95//1 96//1 97//1 98//1
f 96//1 99//1 100//1 97//1
f 100//1 101//1 102//1 97//1
f 97//1 102//1 103//1 98//1
f 104//1 105//1 47//1 46//1
f 106//1 107//1 104//1 108//1
f 107//1 106//1 109//1 110//1
f 104//1 46//1 54//1 108//1
f 111//1 112//1 106//1 108//1
f 111//1 108//1 54//1 57//1
f 113//1 111//1 57//1 60//1 114//1
f 93//1 115//1 116//1 117//1
f 113//1 114//1 26//1 25//1
f 64//1 66//1 118//1 23//1
f 67//1 64//1 23//1 26//1
f 93//1 117//1 25//1 24//1
f 117//1 119//1 113//1 25//1
f 118//1 94//1 24//1 23//1
f 114//1 60//1 67//1 26//1
f 120//2 121//2 122//2 123//2
f 123//2 122//2 124//2 125//2
f 124//2 122//2 126//2 127//2
f 122//2 121//2 128//2 126//2
f 129//2 130//2 81//2 80//2 131//2
f 132//2 133//2 134//2 135//2
f 129//2 136//2 137//2 130//2
f 133//2 136//2 129//2 138//2
f 130//2 137//2 90//2 81//2
f 99//6 96//6 123//6 125//6
f 54//4 46//4 139//4 140//4
f 100//8 99//8 125//8 124//8
f 96//6 95//6 120//6 123//6
f 57//4 54//4 140//4 80//4
f 112//3 111//3 131//3 141//3
f 46//4 47//4 142//4 139//4
f 116//6 115//6 135//6 134//6
f 117//8 116//8 134//8 133//8
f 66//4 64//4 143//4 144//4
f 119//6 117//6 133//6 138//6
f 113//8 119//8 138//8 129//8
f 60//4 57//4 80//4 81//4
f 111//6 113//6 129//6 131//6
f 64//4 67//4 90//4 143//4
f 67//4 60//4 81//4 90//4
usemtl jersey
f 56//1 49//1 53//1 145//1
f 145//1 53//1 146//1 147//1
f 146//1 53//1 52//1 148//1
f 149//1 148//1 37//1 36//1
f 148//1 149//1 150//1 146//1
f 44//1 48//1 151//1 42//1
f 44//1 52//1 51//1 45//1 48//1
f 37//1 148//1 52//1 44//1
f 151//1 48//1 47//1 152//1
f 91//2 153//2 154//2 155//2
f 153//2 156//2 157//2 154//2
f 157//2 158//2 159//2 154//2
f 160//2 69//2 72//2 158//2
f 158//2 157//2 161//2 160//2
f 77//2 76//2 162//2 163//2
f 77//2 163//2 164//2 165//2 159//2
f 72//2 77//2 159//2 158//2
f 162//2 166//2 142//2 163//2
f 164//2 163//2 142//2 139//2
f 155//2 165//2 164//2 167//2
f 165//2 155//2 154//2 159//2
f 164//2 139//2 140//2 167//2
f 79//2 91//2 155//2 167//2
f 79//2 167//2 140//2 80//2
f 150//3 161//3 157//3 146//3
f 36//4 69//4 160//4 149//4
f 145//3 153//3 91//3 56//3
f 149//4 160//4 161//4 150//4
f 147//3 156//3 153//3 145//3
f 146//4 157//4 156//4 147//4
f 112//1 168//1 109//1 106//1
f 168//1 169//1 170//1 109//1
f 170//1 171//1 110//1 109//1
f 172//1 95//1 98//1 171//1
f 171//1 170//1 173//1 172//1
f 103//1 102//1 174//1 105//1
f 103//1 105//1 104//1 107//1 110//1
f 98//1 103//1 110//1 171//1
f 174//1 152//1 47//1 105//1
f 141//2 175//2 176//2 177//2
f 177//2 176//2 178//2 179//2
f 178//2 176//2 180//2 181//2
f 182//2 181//2 121//2 120//2
f 181//2 182//2 183//2 178//2
f 128//2 184//2 185//2 126//2
f 128//2 180//2 186//2 187//2 184//2
f 121//2 181//2 180//2 128//2
f 185//2 184//2 142//2 166//2
f 187//2 139//2 142//2 184//2
f 175//2 188//2 187//2 186//2
f 186//2 180//2 176//2 175//2
f 187//2 188//2 140//2 139//2
f 131//2 188//2 175//2 141//2
f 131//2 80//2 140//2 188//2
f 173//3 170//3 178//3 183//3
f 95//6 172//6 182//6 120//6
f 47//4 152//4 166//4 142//4
f 168//3 112//3 141//3 177//3
f 172//6 173//6 183//6 182//6
f 169//3 168//3 177//3 179//3
f 170//6 169//6 179//6 178//6
usemtl zapatos
f 1//1 2//1 3//1 4//1
f 3//1 2//1 5//1 6//1
f 7//1 8//1 9//1 10//1
f 11//2 12//2 13//2 14//2
f 13//2 15//2 16//2 14//2
f 4//4 12//4 11//4 1//4
f 6//8 15//8 13//8 3//8
f 3//8 13//8 12//8 4//8
f 5//6 16//6 15//6 6//6
f 17//1 18//1 19//1 20//1
f 19//1 21//1 22//1 20//1
f 23//1 24//1 25//1 26//1
f 27//2 28//2 29//2 30//2
f 29//2 28//2 31//2 32//2
f 18//6 17//6 27//6 30//6
f 21//8 19//8 29//8 32//8
f 19//8 18//8 30//8 29//8
f 22//4 21//4 32//4 31//4
usemtl vaquero
f 40//1 43//1 2//1 1//1
f 42//1 151//1 189//1 43//1
f 2//1 43//1 189//1 5//1
f 189//1 151//1 152//1 190//1
f 74//2 11//2 14//2 75//2
f 76//2 75//2 191//2 162//2
f 14//2 16//2 191//2 75//2
f 191//2 192//2 166//2 162//2
f 1//4 11//4 74//4 40//4
f 189//6 191//6 16//6 5//6
f 190//8 192//8 191//8 189//8
f 100//1 17//1 20//1 101//1
f 102//1 101//1 193//1 174//1
f 20//1 22//1 193//1 101//1
f 193//1 190//1 152//1 174//1
f 124//2 127//2 28//2 27//2
f 126//2 185//2 194//2 127//2
f 28//2 127//2 194//2 31//2
f 194//2 185//2 166//2 192//2
f 17//6 100//6 124//6 27//6
f 193//4 22//4 31//4 194//4
f 190//8 193//8 194//8 192//8
f 152//4 190//4 192//4 166//4
